<svg width="216" height="73" viewBox="0 0 216 73" fill="none" xmlns="http://www.w3.org/2000/svg">
<g clip-path="url(#clip0_2015_437)">
<path d="M45.455 40.381C45.2046 38.9675 45.8221 38.2608 47.3076 38.2608C47.3796 38.2608 47.4517 38.2608 47.5237 38.2608C49.402 38.2814 51.5428 37.7256 52.2272 40.381C54.6304 43.4789 58.9016 43.4789 61.3203 40.381C62.8075 38.7445 62.6634 36.7839 62.5244 34.7306C57.1983 39.4341 47.7398 36.0738 45.2543 28.4525V34.6174C45.2543 36.1475 44.4927 36.9126 42.9695 36.9126C42.2079 36.9126 41.4411 36.8457 40.6898 36.928C39.604 37.0515 39.218 36.7479 39.254 35.5643C39.3518 32.4561 39.3003 29.3479 39.2746 26.2345C39.2695 25.406 39.2386 24.5621 39.0533 23.7593C38.4204 21.0525 35.7393 19.1227 33.0994 19.3903C29.9603 19.7093 27.7166 21.953 27.6651 24.9737C27.5982 28.6223 27.6034 32.276 27.6446 35.9297C27.6548 36.7685 27.4027 36.9331 26.6102 36.928C18.2788 36.8971 9.94731 36.8971 1.62101 36.928C0.864547 36.928 0.658705 36.7479 0.663851 35.9811C0.689581 26.6874 0.689581 17.3988 0.663851 8.10501C0.663851 7.3434 0.859401 7.14785 1.62101 7.15299C7.92492 7.18387 14.2237 7.18901 20.5276 7.15299C21.387 7.14785 21.5516 7.42573 21.5208 8.19764C21.4642 9.64368 21.5259 11.0897 21.495 12.5358C21.4796 13.107 21.6751 13.2768 22.2361 13.2665C23.7541 13.2305 25.2774 13.2922 26.8006 13.2408C27.485 13.2202 27.696 13.4415 27.6343 14.1001C27.5777 14.728 27.624 15.3661 27.624 16.0762C34.9159 10.642 42.7225 13.5598 45.1617 22.6683C46.196 18.7161 48.4346 15.8498 52.0574 14.3111C55.639 12.7931 59.2207 12.6181 62.4164 15.4072C62.4627 15.3558 62.545 15.3043 62.5502 15.2529C62.6325 13.9389 63.3375 13.2819 64.6652 13.2819C65.679 13.2819 66.6979 13.3231 67.7065 13.2665C68.3652 13.2305 68.5813 13.4209 68.571 14.1053C68.5299 16.1894 68.5556 18.2736 68.5556 20.6768C70.2692 17.2598 72.5849 14.8515 76.0173 13.8223C79.4395 12.7931 82.7484 12.8702 85.5015 15.5771C85.7125 15.5153 85.6765 15.3558 85.6765 15.222C85.7039 13.908 86.3592 13.2511 87.6423 13.2511C88.6921 13.2511 89.747 13.3231 90.7916 13.2305C91.8054 13.143 92.1553 13.3951 92.1193 14.4912C92.0267 17.126 92.0833 19.7711 92.0936 22.411C92.0936 22.7404 91.9649 23.1109 92.3252 23.5123C93.0096 19.3388 95.2584 16.3593 98.9172 14.481C102.149 12.8239 107.063 12.6232 109.647 15.4639C109.899 15.4021 109.822 15.1911 109.827 15.0316C109.854 13.8617 110.441 13.2768 111.587 13.2768C112.637 13.2768 113.692 13.3334 114.736 13.2613C115.616 13.1996 115.93 13.4363 115.894 14.3677C115.817 16.3387 115.873 18.3199 115.873 20.6356C118.349 15.9682 121.889 13.3488 126.958 13.3488C132.058 13.3488 135.547 16.0454 138.001 20.7437V9.61795C138.001 8.11187 138.748 7.35883 140.24 7.35883C143.065 7.35883 145.895 7.45661 148.715 7.3434C156.821 7.01405 162.857 13.0349 163.989 19.344C164.277 21.2171 164.303 23.0954 163.999 24.9737C162.306 32.487 156.548 37.103 148.844 37.1133C145.551 37.1133 142.257 37.0927 138.964 37.1287C138.223 37.139 137.971 36.9537 137.986 36.1767C138.032 33.5007 137.991 30.8299 138.012 28.154C138.012 27.5982 137.935 27.3049 137.26 27.3049C132.192 27.3152 127.123 27.2843 122.054 27.2689C121.92 27.2689 121.781 27.31 121.642 27.3358C122.728 30.7682 127.334 32.0907 130.344 29.775C131.121 29.1729 131.718 29.1317 132.567 29.4354C134.054 29.9705 135.583 30.4028 137.157 30.8968C134.986 34.5814 131.939 36.717 127.658 36.892C122.517 37.0978 118.94 34.9416 115.94 29.7235C115.673 33.3824 116.244 36.9177 115.39 40.3656C114.906 41.6778 114.237 42.8871 113.46 44.045C112.132 45.5219 110.645 46.7981 108.865 47.7038C105.664 48.9234 102.458 48.9337 99.2517 47.7038C97.4763 46.7775 95.9583 45.5373 94.6203 44.0553C93.8587 42.8923 93.1897 41.6829 92.742 40.3604C92.6699 40.0105 92.6133 39.6503 92.5156 39.3055C92.3097 38.5747 92.3921 38.163 93.3338 38.2351C94.4453 38.3174 95.5723 38.3071 96.6839 38.2351C97.7645 38.1682 98.6496 38.2557 98.9224 39.5473C98.9944 39.8767 99.226 40.1957 99.5399 40.4016C101.866 43.448 106.23 43.448 108.566 40.4016C110.13 38.7548 109.883 36.7582 109.765 34.6637C106.261 37.5404 102.566 37.4272 98.8709 35.6518C95.1606 33.8712 92.989 30.7836 92.2994 26.5896C91.9649 27.0991 92.0781 27.5056 92.0781 27.8915C92.0679 30.6035 92.0473 33.3155 92.0884 36.0223C92.0987 36.7427 91.8877 36.9589 91.1776 36.9126C90.205 36.8508 89.2221 36.9126 88.2443 36.892C87.421 36.8817 86.4124 37.1133 85.8257 36.7273C85.3111 36.3928 85.7537 35.3121 85.6404 34.5711C85.6404 34.5505 85.589 34.5351 85.5221 34.4888C82.7484 37.2573 79.3983 37.2316 75.9607 36.2178C72.5129 35.1989 70.2435 32.7288 68.5916 29.4868C68.3549 33.2331 68.921 36.8251 68.1027 40.3604C67.6036 41.6726 66.9449 42.9025 66.1421 44.0553C64.8401 45.5425 63.3324 46.7724 61.5724 47.6832C58.3767 48.8925 55.1759 48.9234 51.9802 47.6832C50.21 46.7672 48.6764 45.5528 47.3693 44.0553C46.5614 42.9128 45.9387 41.6675 45.4499 40.3604L45.455 40.381ZM145.124 22.2566C145.124 24.6444 145.139 27.027 145.113 29.4148C145.108 30.0117 145.262 30.2433 145.901 30.2227C147.167 30.1764 148.438 30.2278 149.704 30.1918C153.8 30.0786 157.021 26.852 157.309 22.6117C157.577 18.6287 154.669 14.9647 150.733 14.3008C149.148 14.0333 147.552 14.2288 145.962 14.1362C145.278 14.095 145.103 14.3369 145.113 14.9904C145.149 17.4142 145.129 19.8328 145.129 22.2566H145.124ZM21.1554 22.0662C21.1554 19.5035 21.14 16.9356 21.1657 14.3729C21.1708 13.8017 21.0628 13.5392 20.4041 13.5444C16.4622 13.5701 12.5152 13.565 8.57332 13.5444C8.0124 13.5444 7.80656 13.709 7.82714 14.2803C7.86317 15.469 7.89404 16.668 7.81685 17.8568C7.76024 18.7059 8.06901 18.8705 8.85635 18.8602C12.0778 18.8191 15.2992 18.8602 18.5155 18.8242C19.2205 18.8139 19.4469 19.0043 19.4212 19.7196C19.3646 21.2326 19.3646 22.7558 19.4212 24.2687C19.4521 25.0149 19.2565 25.2465 18.4743 25.2362C15.2169 25.1899 11.9594 25.231 8.70712 25.2053C8.08959 25.2053 7.78083 25.2928 7.81685 26.0184C7.8786 27.2431 7.86316 28.473 7.81685 29.703C7.79627 30.305 7.97123 30.516 8.60419 30.5109C12.51 30.4852 16.421 30.48 20.3269 30.5109C21.0113 30.516 21.176 30.305 21.1657 29.6515C21.1297 27.1248 21.1502 24.5929 21.1502 22.0662H21.1554ZM79.5527 30.8454C82.7947 30.8557 85.4243 28.2518 85.4346 25.0303C85.4449 21.8655 82.9028 19.2771 79.774 19.2668C76.3776 19.2565 73.7737 21.7575 73.7737 25.0406C73.7737 28.1952 76.4033 30.8402 79.5527 30.8505V30.8454ZM56.7557 19.3079C53.5394 19.3079 50.9613 21.8604 50.9407 25.0715C50.9201 28.226 53.5549 30.8762 56.73 30.8762C59.9874 30.8762 62.5399 28.3701 62.5605 25.1487C62.581 21.8295 60.0801 19.3131 56.7557 19.3079ZM109.811 25.0767C109.811 21.7575 107.31 19.2925 103.955 19.3079C100.744 19.3234 98.238 21.8861 98.2483 25.1487C98.2637 28.3135 100.811 30.866 103.966 30.8814C107.274 30.8968 109.811 28.3804 109.811 25.0767ZM121.508 22.9616C125.003 22.9616 128.322 22.9616 131.646 22.9616C132.639 22.9616 132.017 22.4007 131.862 22.1486C130.637 20.1467 128.805 19.2153 126.479 19.3594C124.184 19.5035 122.574 20.6922 121.508 22.9616Z" fill="#13477B"/>
<path d="M107.949 65.679C72.4203 65.679 36.892 65.6738 1.36372 65.7047C0.277901 65.7047 -0.041154 65.468 0.00516042 64.3564C0.102935 61.9584 0.0360367 61.9532 2.45468 61.9532C73.151 61.9532 143.842 61.9532 214.539 61.9532C216.201 61.9532 215.979 61.7371 215.99 63.3787C216 65.6738 215.99 65.6738 213.669 65.6738H107.954L107.949 65.679Z" fill="#EA712B"/>
<path d="M107.974 58.5774C72.482 58.5774 36.9897 58.5774 1.49749 58.5774C-0.180117 58.5774 0.0514553 58.809 0.0411632 57.1725C0.0257251 54.7951 0.0411631 54.7951 2.38261 54.7951C73.0429 54.7951 143.698 54.7951 214.358 54.7951C216.232 54.7951 215.985 54.5429 215.995 56.3749C216.01 58.5774 215.995 58.5774 213.797 58.5774H107.974Z" fill="#0FA9B5"/>
<path d="M108.082 69.204C143.616 69.204 179.144 69.204 214.677 69.1834C215.686 69.1834 216.041 69.3635 216 70.4545C215.907 72.9297 215.974 72.9297 213.53 72.9297C142.828 72.9297 72.1321 72.9297 1.43058 72.9555C0.339622 72.9555 -0.0411854 72.7496 0.010275 71.5815C0.113196 69.2091 0.0411514 69.204 2.47008 69.204H108.087H108.082Z" fill="#13477B"/>
<path d="M51.9853 47.709C55.181 48.9492 58.3819 48.9235 61.5775 47.709C74.1339 47.709 86.6902 47.709 99.2517 47.709C102.458 48.9337 105.659 48.9235 108.865 47.709C109.41 47.7193 109.95 47.7347 110.496 47.7347C145.165 47.7347 179.834 47.7347 214.497 47.7347C216.113 47.7347 215.938 47.5598 215.949 49.1859C215.959 51.4502 215.949 51.4502 213.695 51.4502C142.983 51.4502 72.271 51.4502 1.55924 51.4502C0.554049 51.4502 0.0514526 50.9579 0.0514526 49.9732C0.0514526 48.4809 0.811352 47.7347 2.33115 47.7347C18.3765 47.7347 34.427 47.7347 50.4724 47.7347C50.9818 47.7347 51.4861 47.7193 51.9956 47.709H51.9853Z" fill="#73CDD7"/>
<path d="M190.244 19.9975C190.244 15.4073 190.28 10.817 190.218 6.22673C190.203 5.22325 190.507 5.00712 191.433 5.06373C192.807 5.14092 194.186 5.13577 195.56 5.06373C196.445 5.01741 196.728 5.26442 196.718 6.19071C196.666 10.5648 196.697 14.939 196.697 19.3131C196.697 19.7094 196.697 20.1056 196.697 20.5019C197.114 20.6357 197.227 20.2806 197.402 20.1108C199.486 18.0523 201.555 15.9733 203.634 13.9098C203.907 13.637 204.138 13.3231 204.612 13.3231C207.391 13.3386 210.175 13.3334 212.974 13.3334C213 13.8635 212.655 14.0024 212.449 14.2031C209.66 16.9923 206.881 19.7917 204.046 22.5345C203.459 23.1058 203.49 23.4145 203.999 24.0012C207.432 27.9636 210.828 31.9672 214.23 35.9554C214.456 36.223 214.677 36.4906 215.043 36.9177C212.182 36.9177 209.521 36.9177 206.861 36.9177C206.413 36.9177 206.253 36.5729 206.027 36.3054C203.84 33.7015 201.648 31.1078 199.492 28.4782C199.034 27.9224 198.817 27.8453 198.2 28.365C197.021 29.3582 196.502 30.4543 196.661 32.0136C196.805 33.4081 196.671 34.8284 196.702 36.2385C196.713 36.7582 196.543 36.928 196.018 36.9229C194.315 36.8971 192.611 36.8869 190.913 36.9229C190.275 36.9383 190.229 36.645 190.234 36.1407C190.254 34.4219 190.244 32.7083 190.172 30.9483C189.22 34.8902 186.374 36.3362 182.715 36.7685C179.031 37.2008 175.624 36.7273 172.928 33.8713C171.497 32.3583 170.905 30.5161 170.818 28.4731C170.792 27.907 170.982 27.7989 171.548 27.7681C172.959 27.6857 174.369 27.7835 175.773 27.7578C176.298 27.7475 176.499 27.8864 176.561 28.4628C176.751 30.2639 177.631 31.1078 179.432 31.2519C180.585 31.3446 181.753 31.3909 182.885 31.0667C183.585 30.866 184.342 30.6704 184.383 29.7493C184.424 28.8539 183.724 28.5194 183.055 28.2364C181.702 27.6651 180.24 27.6034 178.815 27.377C177.153 27.1145 175.583 26.5948 174.152 25.7097C171.981 24.3665 170.777 22.339 170.89 19.8586C171.003 17.4811 172.073 15.3404 174.322 14.1877C178.12 12.2425 182.062 12.1241 185.911 13.9767C188.376 15.1654 189.668 17.3525 190.244 19.9873V19.9975ZM190.244 28.6789C190.244 26.5485 190.223 24.4128 190.26 22.2824C190.27 21.6546 190.064 21.495 189.462 21.5105C188.052 21.5516 186.637 21.5105 185.227 21.5311C184.81 21.5311 184.614 21.4796 184.558 20.965C184.403 19.5704 183.642 18.8088 182.242 18.4743C180.914 18.1553 179.576 18.2067 178.259 18.5052C177.559 18.6596 176.813 18.8911 176.736 19.8071C176.659 20.7026 177.297 21.0834 177.976 21.3921C179.113 21.9067 180.348 21.9891 181.563 22.1795C185.602 22.8073 189.024 24.2688 190.254 28.6841L190.244 28.6789Z" fill="#13477B"/>
<path d="M113.455 44.0501C114.232 42.8923 114.901 41.683 115.385 40.3707C115.93 40.3759 116.47 40.3862 117.016 40.3862C149.467 40.3862 181.913 40.3862 214.364 40.3862C215.379 40.3862 215.888 40.8888 215.892 41.894C215.892 43.3486 215.175 44.0759 213.741 44.0759C180.858 44.0759 147.974 44.0759 115.091 44.0759C114.546 44.0759 114.005 44.0604 113.46 44.0501H113.455Z" fill="#FDBD4F"/>
<path d="M45.455 40.381C45.9439 41.6881 46.5665 42.9283 47.3745 44.0758C32.0959 44.0758 16.8173 44.0758 1.54381 44.0758C0.548903 44.0758 0.0514526 43.599 0.0514526 42.6452C0.0514526 41.1392 0.814782 40.3861 2.34144 40.3861C16.7143 40.3861 31.0872 40.3861 45.4601 40.3861L45.455 40.381Z" fill="#FDBD4F"/>
<path d="M164.308 19.3388C164.318 17.6406 164.365 15.9424 164.329 14.2442C164.318 13.5958 164.468 13.354 165.162 13.3797C166.68 13.4312 168.204 13.4415 169.727 13.3797C170.535 13.3437 170.761 13.5753 170.756 14.3935C170.72 19.8174 170.735 25.2413 170.735 30.6653C170.735 32.4715 170.705 34.2829 170.751 36.0892C170.766 36.7633 170.566 36.9486 169.897 36.928C168.342 36.8817 166.783 36.8765 165.224 36.928C164.514 36.9537 164.318 36.7479 164.323 36.0326C164.349 32.348 164.313 28.6583 164.303 24.9737C164.303 23.0954 164.303 21.2171 164.303 19.344L164.308 19.3388Z" fill="#13477B"/>
<path d="M163.773 6.85453C162.512 6.10321 162.075 5.12032 162.445 3.88012C162.733 2.90752 163.613 2.37748 165.044 2.40321C165.517 2.4135 165.744 2.31572 165.893 1.82685C166.233 0.725596 166.984 0.0463186 168.178 4.23728e-06C169.372 -0.0463102 170.174 0.519755 170.54 1.66732C170.653 2.01725 170.782 2.13561 171.229 2.06871C172.984 1.80112 174.013 2.35689 174.456 3.68972C174.914 5.06886 174.302 6.80822 172.886 7.46691C171.888 7.93006 171.713 8.37262 172.053 9.39153C172.506 10.7604 171.713 12.0263 170.308 12.5615C168.991 13.0658 167.987 12.613 167.2 11.1926C167.071 10.9611 167.179 10.4259 166.526 10.7347C164.936 11.486 163.86 11.3522 163.207 10.4568C162.471 9.45329 162.697 8.02269 163.778 6.84939L163.773 6.85453ZM169.737 5.8562C169.706 5.03283 169.053 4.38958 168.291 4.43589C167.329 4.49765 166.495 5.35704 166.531 6.25759C166.562 7.13757 167.185 7.68305 168.095 7.63159C169.037 7.58013 169.773 6.78249 169.737 5.85106V5.8562Z" fill="#EA712B"/>
<path d="M61.3254 40.381C58.9068 43.4738 54.6356 43.4738 52.2324 40.381C55.2634 40.381 58.2944 40.381 61.3254 40.381Z" fill="#FDBD4F"/>
<path d="M94.6203 44.0656C85.131 44.0707 75.6365 44.0759 66.1472 44.081C66.95 42.9283 67.6087 41.6984 68.1079 40.3862C76.3209 40.3862 84.5289 40.3759 92.742 40.3707C93.1897 41.6933 93.8587 42.9026 94.6203 44.0656Z" fill="#FDBD4F"/>
<path d="M99.5399 40.4119C102.55 40.4119 105.561 40.4119 108.566 40.4119C106.225 43.4532 101.861 43.4532 99.5399 40.4119Z" fill="#FDBD4F"/>
<path d="M169.737 5.85617C169.768 6.78761 169.037 7.58524 168.096 7.6367C167.185 7.68817 166.567 7.13754 166.531 6.26271C166.5 5.36215 167.334 4.49762 168.291 4.44101C169.053 4.3947 169.706 5.03795 169.737 5.86132V5.85617Z" fill="#FDBD4F"/>
</g>
<defs>
<clipPath id="clip0_2015_437">
<rect width="216" height="72.9555" fill="white"/>
</clipPath>
</defs>
</svg>
