<svg width="299" height="101" viewBox="0 0 299 101" fill="none" xmlns="http://www.w3.org/2000/svg">
<g clip-path="url(#clip0_2016_582)">
<path d="M62.9215 55.8977C62.5749 53.9411 63.4297 52.9628 65.486 52.9628C65.5857 52.9628 65.6854 52.9628 65.7852 52.9628C68.3852 52.9913 71.3486 52.222 72.296 55.8977C75.6227 60.186 81.5351 60.186 84.8831 55.8977C86.9418 53.6324 86.7424 50.9184 86.55 48.0761C79.1773 54.587 66.0843 49.9353 62.6437 39.3855V47.9194C62.6437 50.0374 61.5894 51.0965 59.4809 51.0965C58.4266 51.0965 57.3652 51.0039 56.3252 51.1178C54.8222 51.2888 54.2879 50.8685 54.3378 49.2301C54.4731 44.9275 54.4019 40.625 54.3663 36.3153C54.3591 35.1684 54.3164 34.0002 54.0599 32.8889C53.1838 29.142 49.4724 26.4707 45.8181 26.8411C41.4728 27.2827 38.367 30.3886 38.2957 34.57C38.2031 39.6206 38.2103 44.6782 38.2672 49.7359C38.2815 50.897 37.9324 51.125 36.8354 51.1178C25.3025 51.0751 13.7697 51.0751 2.24392 51.1178C1.19677 51.1178 0.911829 50.8685 0.918953 49.8071C0.95457 36.9421 0.95457 24.0843 0.918953 11.2193C0.918953 10.1651 1.18964 9.89438 2.24392 9.9015C10.9702 9.94424 19.6893 9.95137 28.4155 9.9015C29.6051 9.89438 29.8331 10.279 29.7903 11.3476C29.712 13.3493 29.7974 15.3509 29.7547 17.3526C29.7333 18.1433 30.004 18.3784 30.7805 18.3642C32.8819 18.3143 34.9905 18.3998 37.099 18.3286C38.0464 18.3001 38.3385 18.6064 38.253 19.5182C38.1746 20.3872 38.2387 21.2705 38.2387 22.2536C48.3327 14.7312 59.139 18.7702 62.5155 31.3787C63.9473 25.9079 67.046 21.9401 72.0609 19.8102C77.0189 17.7088 81.9768 17.4666 86.4004 21.3275C86.4646 21.2563 86.5785 21.1851 86.5857 21.1138C86.6996 19.295 87.6755 18.3855 89.5134 18.3855C90.9167 18.3855 92.3272 18.4425 93.7234 18.3642C94.6352 18.3143 94.9343 18.5779 94.9201 19.5253C94.8631 22.4103 94.8987 25.2953 94.8987 28.6219C97.2708 23.892 100.476 20.5582 105.228 19.1335C109.965 17.7088 114.545 17.8157 118.356 21.5626C118.648 21.4771 118.598 21.2563 118.598 21.0711C118.636 19.2522 119.544 18.3428 121.32 18.3428C122.773 18.3428 124.233 18.4425 125.679 18.3143C127.082 18.1932 127.567 18.5423 127.517 20.0596C127.389 23.7068 127.467 27.3682 127.481 31.0226C127.481 31.4785 127.303 31.9913 127.802 32.547C128.749 26.7698 131.862 22.6454 136.927 20.0453C141.401 17.7516 148.204 17.4737 151.78 21.4059C152.129 21.3204 152.022 21.0283 152.029 20.8075C152.067 19.1881 152.879 18.3784 154.465 18.3784C155.918 18.3784 157.379 18.4568 158.825 18.357C160.043 18.2716 160.477 18.5992 160.427 19.8886C160.321 22.6169 160.399 25.3594 160.399 28.565C163.825 22.104 168.726 18.4781 175.743 18.4781C182.802 18.4781 187.632 22.2108 191.03 28.7146V13.3136C191.03 11.2288 192.063 10.1864 194.128 10.1864C198.039 10.1864 201.957 10.3218 205.861 10.1651C217.08 9.70917 225.436 18.0436 227.003 26.777C227.402 29.3699 227.438 31.97 227.017 34.57C224.674 44.9703 216.703 51.36 206.039 51.3743C201.48 51.3743 196.921 51.3458 192.362 51.3956C191.336 51.4099 190.987 51.1534 191.008 50.0778C191.073 46.3736 191.016 42.6765 191.044 38.9723C191.044 38.203 190.937 37.797 190.004 37.797C182.987 37.8112 175.971 37.7685 168.954 37.7471C168.769 37.7471 168.577 37.8041 168.384 37.8397C169.887 42.591 176.263 44.4218 180.43 41.2162C181.506 40.3828 182.332 40.3258 183.507 40.7461C185.566 41.4869 187.682 42.0853 189.862 42.7691C186.855 47.8695 182.638 50.8258 176.712 51.068C169.595 51.3529 164.644 48.3682 160.492 41.145C160.121 46.2098 160.912 51.1036 159.729 55.8763C159.06 57.6928 158.134 59.3668 157.058 60.9696C155.22 63.014 153.161 64.7806 150.697 66.0343C146.266 67.7226 141.828 67.7368 137.39 66.0343C134.933 64.7521 132.831 63.0354 130.979 60.9838C129.925 59.3739 128.999 57.6999 128.379 55.8692C128.279 55.3848 128.201 54.8861 128.066 54.4089C127.781 53.3973 127.895 52.8275 129.198 52.9272C130.737 53.0412 132.297 53.0269 133.836 52.9272C135.331 52.8346 136.557 52.9557 136.934 54.7437C137.034 55.1996 137.355 55.6412 137.789 55.9262C141.009 60.1432 147.05 60.1432 150.284 55.9262C152.449 53.6467 152.107 50.8828 151.943 47.9835C147.092 51.9655 141.978 51.8088 136.863 49.3512C131.727 46.8865 128.721 42.6124 127.766 36.8068C127.303 37.512 127.46 38.0748 127.46 38.609C127.446 42.3631 127.417 46.1172 127.474 49.8641C127.489 50.8614 127.196 51.1606 126.213 51.0965C124.867 51.011 123.507 51.0965 122.153 51.068C121.013 51.0537 119.617 51.3743 118.805 50.84C118.093 50.377 118.705 48.8811 118.549 47.8553C118.549 47.8268 118.477 47.8054 118.385 47.7413C114.545 51.5737 109.908 51.5381 105.149 50.1348C100.377 48.7243 97.2352 45.3051 94.9486 40.8173C94.6209 46.0032 95.4045 50.9754 94.2719 55.8692C93.5809 57.6857 92.6691 59.3882 91.5578 60.9838C89.7556 63.0425 87.6684 64.745 85.2322 66.0059C80.8085 67.6799 76.3777 67.7226 71.9541 66.0059C69.5036 64.7379 67.3808 63.0567 65.5714 60.9838C64.4531 59.4024 63.5911 57.6785 62.9144 55.8692L62.9215 55.8977ZM200.889 30.8088C200.889 34.1141 200.91 37.4123 200.874 40.7176C200.867 41.5439 201.081 41.8645 201.964 41.836C203.717 41.7719 205.476 41.8431 207.229 41.7932C212.899 41.6365 217.358 37.1701 217.757 31.3004C218.127 25.7868 214.103 20.7149 208.653 19.796C206.459 19.4256 204.251 19.6963 202.05 19.568C201.102 19.511 200.86 19.8458 200.874 20.7505C200.924 24.1057 200.896 27.4537 200.896 30.8088H200.889ZM29.2846 30.5453C29.2846 26.9978 29.2632 23.4432 29.2988 19.8957C29.3059 19.105 29.1563 18.7417 28.2445 18.7488C22.788 18.7845 17.3243 18.7773 11.8677 18.7488C11.0912 18.7488 10.8063 18.9768 10.8348 19.7675C10.8847 21.413 10.9274 23.0728 10.8206 24.7183C10.7422 25.8937 11.1696 26.1216 12.2595 26.1074C16.7188 26.0504 21.1781 26.1074 25.6302 26.0575C26.6061 26.0433 26.9196 26.3068 26.884 27.297C26.8056 29.3913 26.8056 31.4998 26.884 33.5941C26.9267 34.627 26.656 34.9476 25.5732 34.9333C21.0641 34.8692 16.5549 34.9262 12.0529 34.8906C11.1981 34.8906 10.7707 35.0117 10.8206 36.0161C10.906 37.7115 10.8847 39.414 10.8206 41.1165C10.7921 41.9499 11.0343 42.242 11.9104 42.2349C17.3172 42.1993 22.731 42.1921 28.1377 42.2349C29.0851 42.242 29.3131 41.9499 29.2988 41.0453C29.2489 37.5476 29.2774 34.0429 29.2774 30.5453H29.2846ZM110.122 42.6979C114.609 42.7121 118.249 39.1077 118.264 34.6484C118.278 30.2675 114.759 26.6844 110.428 26.6701C105.726 26.6559 102.122 30.1179 102.122 34.6626C102.122 39.0293 105.762 42.6908 110.122 42.705V42.6979ZM78.5646 26.7271C74.1125 26.7271 70.5436 30.2603 70.5151 34.7054C70.4866 39.0721 74.1338 42.7406 78.529 42.7406C83.0382 42.7406 86.5714 39.2715 86.5999 34.8122C86.6284 30.2176 83.1664 26.7342 78.5646 26.7271ZM152.007 34.7125C152.007 30.1179 148.545 26.7057 143.901 26.7271C139.456 26.7485 135.987 30.296 136.001 34.8122C136.022 39.1932 139.549 42.7264 143.915 42.7478C148.496 42.7691 152.007 39.2858 152.007 34.7125ZM168.199 31.7848C173.036 31.7848 177.631 31.7848 182.232 31.7848C183.607 31.7848 182.745 31.0083 182.531 30.6593C180.836 27.8882 178.3 26.5989 175.08 26.7983C171.903 26.9978 169.674 28.6433 168.199 31.7848Z" fill="white"/>
<path d="M149.429 90.9165C100.248 90.9165 51.0681 90.9094 1.88771 90.9521C0.384664 90.9521 -0.0569909 90.6244 0.00712018 89.0857C0.142466 85.7662 0.049861 85.7591 3.39789 85.7591C101.26 85.7591 199.115 85.7591 296.977 85.7591C299.278 85.7591 298.971 85.4599 298.986 87.7323C299 90.9094 298.986 90.9094 295.773 90.9094H149.436L149.429 90.9165Z" fill="#EA712B"/>
<path d="M149.464 81.0865C100.334 81.0865 51.2034 81.0865 2.07294 81.0865C-0.249306 81.0865 0.0712495 81.407 0.0570026 79.1418C0.0356322 75.8507 0.0570024 75.8507 3.29818 75.8507C101.11 75.8507 198.915 75.8507 296.728 75.8507C299.321 75.8507 298.979 75.5017 298.993 78.0376C299.014 81.0865 298.993 81.0865 295.951 81.0865H149.464Z" fill="#0FA9B5"/>
<path d="M149.614 95.7961C198.801 95.7961 247.982 95.7961 297.169 95.7676C298.566 95.7676 299.057 96.0169 299 97.5271C298.872 100.953 298.964 100.953 295.581 100.953C197.712 100.953 99.8495 100.953 1.98035 100.989C0.470178 100.989 -0.0569576 100.704 0.014277 99.0871C0.156746 95.8032 0.0570179 95.7961 3.41929 95.7961H149.621H149.614Z" fill="#13477B"/>
<path d="M71.9612 66.0415C76.3848 67.7583 80.8156 67.7226 85.2393 66.0415C102.621 66.0415 120.002 66.0415 137.39 66.0415C141.828 67.7369 146.259 67.7226 150.697 66.0415C151.452 66.0558 152.2 66.0771 152.955 66.0771C200.946 66.0771 248.936 66.0771 296.92 66.0771C299.157 66.0771 298.915 65.8349 298.929 68.0859C298.943 71.2203 298.929 71.2203 295.809 71.2203C197.925 71.2203 100.042 71.2203 2.1584 71.2203C0.766952 71.2203 0.071228 70.5388 0.071228 69.1758C0.071228 67.11 1.12313 66.0771 3.22692 66.0771C25.4379 66.0771 47.6559 66.0771 69.8669 66.0771C70.5721 66.0771 71.2702 66.0558 71.9754 66.0415H71.9612Z" fill="#73CDD7"/>
<path d="M263.347 27.6818C263.347 21.3277 263.397 14.9736 263.312 8.61945C263.29 7.23037 263.71 6.93119 264.993 7.00955C266.895 7.1164 268.804 7.10927 270.706 7.00955C271.931 6.94544 272.323 7.28736 272.308 8.56958C272.237 14.6245 272.28 20.6795 272.28 26.7344C272.28 27.2829 272.28 27.8314 272.28 28.3799C272.857 28.5651 273.014 28.0736 273.256 27.8385C276.141 24.9892 279.004 22.1113 281.882 19.2548C282.26 18.8772 282.58 18.4427 283.236 18.4427C287.082 18.4641 290.936 18.4569 294.811 18.4569C294.847 19.1907 294.37 19.383 294.085 19.6608C290.224 23.5217 286.377 27.3969 282.452 31.1937C281.64 31.9844 281.683 32.4118 282.388 33.2239C287.139 38.7089 291.841 44.251 296.55 49.7717C296.863 50.1421 297.169 50.5125 297.675 51.1037C293.714 51.1037 290.032 51.1037 286.349 51.1037C285.729 51.1037 285.508 50.6265 285.195 50.2561C282.167 46.6516 279.133 43.0614 276.148 39.4213C275.514 38.6519 275.215 38.5451 274.36 39.2646C272.729 40.6394 272.009 42.1567 272.23 44.3151C272.43 46.2455 272.244 48.2116 272.287 50.1634C272.301 50.8829 272.066 51.118 271.34 51.1109C268.982 51.0753 266.624 51.061 264.273 51.1109C263.39 51.1322 263.326 50.7262 263.333 50.0281C263.361 47.6489 263.347 45.2768 263.247 42.8405C261.93 48.2971 257.99 50.2988 252.926 50.8972C247.825 51.4955 243.109 50.8402 239.377 46.8867C237.396 44.7924 236.577 42.2422 236.456 39.4142C236.42 38.6306 236.684 38.481 237.468 38.4382C239.419 38.3243 241.371 38.4596 243.316 38.424C244.043 38.4097 244.32 38.6021 244.406 39.3999C244.669 41.8931 245.888 43.0614 248.381 43.2608C249.976 43.389 251.593 43.4532 253.161 43.0044C254.129 42.7266 255.177 42.4559 255.234 41.1808C255.29 39.9413 254.322 39.4783 253.396 39.0865C251.522 38.2958 249.499 38.2103 247.526 37.8969C245.225 37.5336 243.052 36.8141 241.072 35.5889C238.066 33.7296 236.399 30.923 236.556 27.4895C236.713 24.1984 238.194 21.2351 241.307 19.6394C246.564 16.9468 252.021 16.7829 257.349 19.3474C260.761 20.9929 262.549 24.0204 263.347 27.6676V27.6818ZM263.347 39.6991C263.347 36.75 263.319 33.7937 263.368 30.8446C263.383 29.9756 263.098 29.7547 262.264 29.7761C260.313 29.8331 258.354 29.7761 256.402 29.8046C255.825 29.8046 255.554 29.7334 255.476 29.021C255.262 27.0906 254.208 26.0363 252.27 25.5733C250.432 25.1316 248.58 25.2029 246.757 25.616C245.788 25.8297 244.755 26.1503 244.648 27.4183C244.541 28.6577 245.425 29.1849 246.365 29.6123C247.939 30.3246 249.649 30.4386 251.33 30.7022C256.922 31.5712 261.659 33.5943 263.361 39.7062L263.347 39.6991Z" fill="white"/>
<path d="M157.051 60.9766C158.127 59.3738 159.053 57.6998 159.722 55.8833C160.477 55.8904 161.225 55.9047 161.98 55.9047C206.901 55.9047 251.814 55.9047 296.735 55.9047C298.14 55.9047 298.846 56.6004 298.85 57.9918C298.85 60.0054 297.858 61.0122 295.873 61.0122C250.354 61.0122 204.835 61.0122 159.316 61.0122C158.561 61.0122 157.813 60.9908 157.058 60.9766H157.051Z" fill="#FDBD4F"/>
<path d="M62.9215 55.8979C63.5982 57.7073 64.4602 59.4241 65.5785 61.0126C44.429 61.0126 23.2795 61.0126 2.13703 61.0126C0.759829 61.0126 0.071228 60.3525 0.071228 59.0323C0.071228 56.9475 1.12787 55.9051 3.24117 55.9051C23.137 55.9051 43.0328 55.9051 62.9286 55.9051L62.9215 55.8979Z" fill="#FDBD4F"/>
<path d="M227.445 26.77C227.459 24.4192 227.523 22.0685 227.473 19.7178C227.459 18.8202 227.666 18.4854 228.627 18.521C230.729 18.5923 232.837 18.6065 234.946 18.521C236.064 18.4712 236.378 18.7917 236.371 19.9243C236.321 27.4325 236.342 34.9406 236.342 42.4487C236.342 44.949 236.299 47.4565 236.363 49.9568C236.385 50.89 236.107 51.1465 235.181 51.118C233.03 51.0539 230.871 51.0467 228.713 51.118C227.73 51.1536 227.459 50.8686 227.466 49.8785C227.502 44.7781 227.452 39.6706 227.438 34.5702C227.438 31.9701 227.438 29.37 227.438 26.7771L227.445 26.77Z" fill="white"/>
<path d="M226.704 9.48867C224.959 8.44864 224.353 7.08806 224.866 5.37131C225.265 4.02497 226.483 3.29126 228.464 3.32688C229.119 3.34112 229.432 3.20578 229.639 2.52905C230.109 1.00463 231.149 0.064332 232.802 0.000220901C234.454 -0.0638902 235.566 0.71969 236.071 2.30822C236.228 2.79262 236.406 2.95646 237.026 2.86385C239.455 2.49343 240.88 3.26276 241.492 5.10774C242.126 7.01683 241.279 9.42455 239.32 10.3364C237.938 10.9775 237.696 11.5901 238.166 13.0005C238.793 14.8954 237.696 16.6477 235.751 17.3886C233.927 18.0867 232.538 17.4598 231.448 15.4937C231.27 15.1732 231.42 14.4323 230.515 14.8598C228.314 15.8998 226.825 15.7146 225.92 14.4751C224.902 13.086 225.215 11.1057 226.711 9.48154L226.704 9.48867ZM234.96 8.10672C234.917 6.96696 234.013 6.07653 232.958 6.14064C231.626 6.22612 230.472 7.41574 230.522 8.66234C230.565 9.88046 231.427 10.6355 232.688 10.5643C233.991 10.4931 235.01 9.38894 234.96 8.09959V8.10672Z" fill="#EA712B"/>
<path d="M84.8902 55.8979C81.5422 60.1791 75.6298 60.1791 72.3031 55.8979C76.4988 55.8979 80.6945 55.8979 84.8902 55.8979Z" fill="#FDBD4F"/>
<path d="M130.979 60.9979C117.843 61.0051 104.701 61.0122 91.5649 61.0193C92.6762 59.4237 93.588 57.7212 94.279 55.9047C105.648 55.9047 117.01 55.8904 128.379 55.8833C128.999 57.714 129.925 59.388 130.979 60.9979Z" fill="#FDBD4F"/>
<path d="M137.789 55.9404C141.956 55.9404 146.123 55.9404 150.284 55.9404C147.042 60.1504 141.002 60.1504 137.789 55.9404Z" fill="#FDBD4F"/>
<path d="M234.96 8.10674C235.003 9.39608 233.991 10.5002 232.688 10.5715C231.427 10.6427 230.572 9.88048 230.522 8.66949C230.479 7.42289 231.633 6.22615 232.958 6.14779C234.013 6.08368 234.917 6.97411 234.96 8.11386V8.10674Z" fill="#FDBD4F"/>
</g>
<defs>
<clipPath id="clip0_2016_582">
<rect width="299" height="100.989" fill="white"/>
</clipPath>
</defs>
</svg>
