<svg xmlns="http://www.w3.org/2000/svg" xmlns:xlink="http://www.w3.org/1999/xlink" width="350" zoomAndPan="magnify" viewBox="0 0 262.5 101.249998" height="135" preserveAspectRatio="xMidYMid meet" version="1.0"><defs><g/><clipPath id="ad0b0891cb"><path d="M 0.71875 0 L 261.285156 0 L 261.285156 100.503906 L 0.71875 100.503906 Z M 0.71875 0 " clip-rule="nonzero"/></clipPath><clipPath id="f806350a79"><path d="M 195 23 L 210 23 L 210 39 L 195 39 Z M 195 23 " clip-rule="nonzero"/></clipPath><clipPath id="15bd30f183"><path d="M 193.238281 25.839844 L 208.140625 21.234375 L 212.75 36.136719 L 197.847656 40.742188 Z M 193.238281 25.839844 " clip-rule="nonzero"/></clipPath><clipPath id="29f5bc8d37"><path d="M 193.238281 25.839844 L 208.140625 21.234375 L 212.75 36.136719 L 197.847656 40.742188 Z M 193.238281 25.839844 " clip-rule="nonzero"/></clipPath><clipPath id="2628ed1ae6"><path d="M 193.238281 25.839844 L 208.140625 21.234375 L 212.75 36.136719 L 197.847656 40.742188 Z M 193.238281 25.839844 " clip-rule="nonzero"/></clipPath><clipPath id="f9dafc9811"><path d="M 200 28 L 205 28 L 205 33 L 200 33 Z M 200 28 " clip-rule="nonzero"/></clipPath><clipPath id="1ae06e2e79"><path d="M 193.238281 25.839844 L 208.140625 21.234375 L 212.75 36.136719 L 197.847656 40.742188 Z M 193.238281 25.839844 " clip-rule="nonzero"/></clipPath><clipPath id="526a7884b1"><path d="M 193.238281 25.839844 L 208.140625 21.234375 L 212.75 36.136719 L 197.847656 40.742188 Z M 193.238281 25.839844 " clip-rule="nonzero"/></clipPath><clipPath id="9b0ec51d6c"><path d="M 193.238281 25.839844 L 208.140625 21.234375 L 212.75 36.136719 L 197.847656 40.742188 Z M 193.238281 25.839844 " clip-rule="nonzero"/></clipPath></defs><g clip-path="url(#ad0b0891cb)"><path fill="#ffffff" d="M 0.71875 0 L 261.285156 0 L 261.285156 100.503906 L 0.71875 100.503906 Z M 0.71875 0 " fill-opacity="1" fill-rule="nonzero"/><path fill="#ffffff" d="M 0.71875 0 L 261.285156 0 L 261.285156 100.503906 L 0.71875 100.503906 Z M 0.71875 0 " fill-opacity="1" fill-rule="nonzero"/></g><g fill="#036977" fill-opacity="1"><g transform="translate(2.533873, 66.845718)"><g><path d="M 10.09375 -13.84375 L 10.09375 -7.59375 L 26.265625 -7.59375 L 26.265625 0 L 1.625 0 L 1.625 -35.265625 L 26.265625 -35.265625 L 26.265625 -27.671875 L 10.09375 -27.671875 L 10.09375 -21.4375 L 23.828125 -21.4375 L 23.828125 -13.84375 Z M 10.09375 -13.84375 "/></g></g></g><g fill="#036977" fill-opacity="1"><g transform="translate(27.33168, 66.845718)"><g><path d="M 15.515625 -27.84375 C 19.492188 -28.164062 22.785156 -27.132812 25.390625 -24.75 C 28.179688 -22.175781 29.578125 -18.578125 29.578125 -13.953125 L 29.578125 0 L 22.515625 0 L 22.515625 -13.78125 L 22.46875 -13.78125 L 22.46875 -13.890625 C 22.46875 -15.804688 21.796875 -17.4375 20.453125 -18.78125 C 19.117188 -20.113281 17.492188 -20.78125 15.578125 -20.78125 C 13.617188 -20.707031 11.988281 -20.019531 10.6875 -18.71875 C 9.3125 -17.34375 8.660156 -15.71875 8.734375 -13.84375 L 8.734375 -13.78125 L 8.6875 -13.78125 L 8.6875 0 L 1.078125 0 L 1.078125 -28.0625 L 8.6875 -28.0625 L 8.6875 -24.421875 C 10.382812 -26.441406 12.660156 -27.582031 15.515625 -27.84375 Z M 15.515625 -27.84375 "/></g></g></g><g fill="#036977" fill-opacity="1"><g transform="translate(54.896855, 66.845718)"><g><path d="M 22.46875 -28 L 29.578125 -28 L 29.578125 -0.046875 C 29.578125 3.785156 28.21875 7.054688 25.5 9.765625 C 22.820312 12.484375 19.566406 13.859375 15.734375 13.890625 C 12.148438 13.929688 9.019531 12.753906 6.34375 10.359375 C 3.707031 8.046875 2.191406 5.132812 1.796875 1.625 L 8.953125 1.625 C 9.203125 2.78125 9.816406 3.847656 10.796875 4.828125 C 12.140625 6.171875 13.769531 6.84375 15.6875 6.84375 C 17.601562 6.84375 19.210938 6.15625 20.515625 4.78125 C 21.847656 3.4375 22.515625 1.828125 22.515625 -0.046875 L 22.46875 -2.828125 C 20.625 -0.972656 18.378906 -0.046875 15.734375 -0.046875 C 11.867188 -0.015625 8.5625 -1.351562 5.8125 -4.0625 C 3.0625 -6.78125 1.6875 -10.078125 1.6875 -13.953125 C 1.644531 -17.816406 2.984375 -21.109375 5.703125 -23.828125 C 8.410156 -26.578125 11.703125 -27.96875 15.578125 -28 C 18.648438 -28 20.945312 -27.039062 22.46875 -25.125 Z M 22.46875 -14.8125 C 22.320312 -16.40625 21.648438 -17.78125 20.453125 -18.9375 C 19.078125 -20.238281 17.453125 -20.890625 15.578125 -20.890625 C 13.691406 -20.890625 12.082031 -20.222656 10.75 -18.890625 C 9.40625 -17.472656 8.734375 -15.84375 8.734375 -14 C 8.734375 -12.113281 9.421875 -10.484375 10.796875 -9.109375 C 12.140625 -7.773438 13.769531 -7.109375 15.6875 -7.109375 C 17.632812 -7.179688 19.242188 -7.867188 20.515625 -9.171875 C 21.628906 -10.296875 22.28125 -11.632812 22.46875 -13.1875 Z M 22.46875 -14.8125 "/></g></g></g><g fill="#036977" fill-opacity="1"><g transform="translate(83.004659, 66.845718)"><g><path d="M 21.703125 -28.0625 L 29.296875 -28.0625 L 29.296875 0 L 21.703125 0 L 21.703125 -3.140625 C 20.148438 -1.117188 17.800781 -0.109375 14.65625 -0.109375 C 10.820312 -0.0664062 7.53125 -1.40625 4.78125 -4.125 C 2.03125 -6.832031 0.632812 -10.125 0.59375 -14 C 0.5625 -17.832031 1.898438 -21.125 4.609375 -23.875 C 7.328125 -26.625 10.617188 -28.019531 14.484375 -28.0625 C 17.671875 -28.0625 20.078125 -27.03125 21.703125 -24.96875 Z M 19.421875 -9.21875 C 20.765625 -10.5625 21.4375 -12.191406 21.4375 -14.109375 C 21.4375 -16.066406 20.75 -17.695312 19.375 -19 C 18 -20.375 16.390625 -21.023438 14.546875 -20.953125 C 12.628906 -20.953125 11 -20.28125 9.65625 -18.9375 C 8.320312 -17.601562 7.65625 -15.976562 7.65625 -14.0625 C 7.65625 -12.175781 8.34375 -10.546875 9.71875 -9.171875 C 11.050781 -7.828125 12.675781 -7.15625 14.59375 -7.15625 C 16.550781 -7.226562 18.160156 -7.914062 19.421875 -9.21875 Z M 19.421875 -9.21875 "/></g></g></g><g fill="#036977" fill-opacity="1"><g transform="translate(110.841151, 66.845718)"><g><path d="M 22.46875 -28 L 29.578125 -28 L 29.578125 -0.046875 C 29.578125 3.785156 28.21875 7.054688 25.5 9.765625 C 22.820312 12.484375 19.566406 13.859375 15.734375 13.890625 C 12.148438 13.929688 9.019531 12.753906 6.34375 10.359375 C 3.707031 8.046875 2.191406 5.132812 1.796875 1.625 L 8.953125 1.625 C 9.203125 2.78125 9.816406 3.847656 10.796875 4.828125 C 12.140625 6.171875 13.769531 6.84375 15.6875 6.84375 C 17.601562 6.84375 19.210938 6.15625 20.515625 4.78125 C 21.847656 3.4375 22.515625 1.828125 22.515625 -0.046875 L 22.46875 -2.828125 C 20.625 -0.972656 18.378906 -0.046875 15.734375 -0.046875 C 11.867188 -0.015625 8.5625 -1.351562 5.8125 -4.0625 C 3.0625 -6.78125 1.6875 -10.078125 1.6875 -13.953125 C 1.644531 -17.816406 2.984375 -21.109375 5.703125 -23.828125 C 8.410156 -26.578125 11.703125 -27.96875 15.578125 -28 C 18.648438 -28 20.945312 -27.039062 22.46875 -25.125 Z M 22.46875 -14.8125 C 22.320312 -16.40625 21.648438 -17.78125 20.453125 -18.9375 C 19.078125 -20.238281 17.453125 -20.890625 15.578125 -20.890625 C 13.691406 -20.890625 12.082031 -20.222656 10.75 -18.890625 C 9.40625 -17.472656 8.734375 -15.84375 8.734375 -14 C 8.734375 -12.113281 9.421875 -10.484375 10.796875 -9.109375 C 12.140625 -7.773438 13.769531 -7.109375 15.6875 -7.109375 C 17.632812 -7.179688 19.242188 -7.867188 20.515625 -9.171875 C 21.628906 -10.296875 22.28125 -11.632812 22.46875 -13.1875 Z M 22.46875 -14.8125 "/></g></g></g><g fill="#036977" fill-opacity="1"><g transform="translate(138.948949, 66.845718)"><g><path d="M 28.546875 -12.75 C 28.578125 -11.988281 28.578125 -11.535156 28.546875 -11.390625 L 8.140625 -11.453125 C 8.429688 -10.617188 8.957031 -9.820312 9.71875 -9.0625 C 11.125 -7.71875 12.75 -7.046875 14.59375 -7.046875 C 16.550781 -7.117188 18.179688 -7.804688 19.484375 -9.109375 L 19.703125 -9.328125 L 26.75 -7.109375 C 25.195312 -4.679688 23.570312 -2.945312 21.875 -1.90625 C 19.957031 -0.664062 17.550781 -0.03125 14.65625 0 C 10.820312 0.03125 7.53125 -1.304688 4.78125 -4.015625 C 2.03125 -6.722656 0.632812 -10.015625 0.59375 -13.890625 C 0.5625 -17.722656 1.898438 -21.015625 4.609375 -23.765625 C 7.328125 -26.515625 10.617188 -27.910156 14.484375 -27.953125 C 18.316406 -27.984375 21.609375 -26.644531 24.359375 -23.9375 C 27.109375 -21.21875 28.503906 -17.925781 28.546875 -14.0625 Z M 14.546875 -20.84375 C 12.628906 -20.84375 11 -20.171875 9.65625 -18.828125 C 8.96875 -18.066406 8.476562 -17.304688 8.1875 -16.546875 L 20.953125 -16.546875 C 20.660156 -17.304688 20.148438 -18.085938 19.421875 -18.890625 C 18.046875 -20.191406 16.421875 -20.84375 14.546875 -20.84375 Z M 14.546875 -20.84375 "/></g></g></g><g fill="#036977" fill-opacity="1"><g transform="translate(164.994785, 66.845718)"><g><path d="M 15.03125 -35.0625 C 19.875 -35.0625 24.035156 -33.34375 27.515625 -29.90625 C 30.953125 -26.46875 32.671875 -22.304688 32.671875 -17.421875 C 32.671875 -12.566406 30.953125 -8.40625 27.515625 -4.9375 C 24.035156 -1.5 19.875 0.21875 15.03125 0.21875 L 1.625 0.21875 L 1.625 -35.0625 Z M 21.765625 -10.6875 C 23.609375 -12.53125 24.53125 -14.773438 24.53125 -17.421875 C 24.53125 -20.023438 23.609375 -22.285156 21.765625 -24.203125 C 19.921875 -26.046875 17.660156 -26.96875 14.984375 -26.96875 L 10.09375 -26.96875 L 10.09375 -7.921875 L 15.03125 -7.921875 C 17.675781 -7.921875 19.921875 -8.84375 21.765625 -10.6875 Z M 21.765625 -10.6875 "/></g></g></g><g fill="#036977" fill-opacity="1"><g transform="translate(196.195539, 66.845718)"><g><path d="M 9.171875 -37.828125 L 9.171875 -31.421875 L 1.625 -31.421875 L 1.625 -37.828125 Z M 9.21875 -27.890625 L 9.21875 0 L 1.625 0 L 1.625 -27.890625 Z M 9.21875 -27.890625 "/></g></g></g><g fill="#036977" fill-opacity="1"><g transform="translate(203.955018, 66.845718)"><g><path d="M 12.921875 0 C 11.035156 0 9.390625 -0.289062 7.984375 -0.875 C 6.859375 -1.269531 5.695312 -2.007812 4.5 -3.09375 C 2.4375 -5.007812 1.5 -7.429688 1.6875 -10.359375 L 1.6875 -10.96875 L 7.765625 -10.859375 L 8.25 -10.859375 L 8.25 -10.421875 C 8.28125 -9.515625 8.476562 -8.769531 8.84375 -8.1875 C 9.457031 -7.144531 10.816406 -6.625 12.921875 -6.625 C 14.648438 -6.625 15.894531 -6.820312 16.65625 -7.21875 C 17.050781 -7.394531 17.320312 -7.628906 17.46875 -7.921875 C 17.539062 -8.023438 17.578125 -8.132812 17.578125 -8.25 L 17.640625 -8.515625 C 17.640625 -9.273438 17.039062 -9.890625 15.84375 -10.359375 C 15.375 -10.546875 14.832031 -10.691406 14.21875 -10.796875 C 13.75 -10.910156 13.222656 -11 12.640625 -11.0625 C 10.472656 -11.28125 8.664062 -11.71875 7.21875 -12.375 C 5.769531 -12.945312 4.578125 -13.742188 3.640625 -14.765625 C 2.335938 -16.242188 1.6875 -17.941406 1.6875 -19.859375 C 1.6875 -21.054688 1.898438 -22.160156 2.328125 -23.171875 C 2.660156 -23.960938 3.097656 -24.664062 3.640625 -25.28125 C 5.585938 -27.53125 8.71875 -28.65625 13.03125 -28.65625 C 15.59375 -28.65625 17.757812 -28.148438 19.53125 -27.140625 C 20.90625 -26.378906 22.007812 -25.347656 22.84375 -24.046875 C 23.5 -23.066406 23.953125 -21.925781 24.203125 -20.625 C 24.273438 -20.1875 24.328125 -19.769531 24.359375 -19.375 L 24.359375 -18.234375 L 17.796875 -18.234375 L 17.796875 -19.046875 C 17.765625 -19.191406 17.75 -19.335938 17.75 -19.484375 C 17.632812 -19.878906 17.488281 -20.203125 17.3125 -20.453125 C 16.507812 -21.546875 15.082031 -22.09375 13.03125 -22.09375 C 9.988281 -22.09375 8.46875 -21.457031 8.46875 -20.1875 C 8.46875 -19.53125 8.828125 -19.003906 9.546875 -18.609375 C 10.304688 -18.140625 11.59375 -17.796875 13.40625 -17.578125 C 17.5625 -17.148438 20.582031 -15.832031 22.46875 -13.625 C 23.726562 -12.132812 24.359375 -10.429688 24.359375 -8.515625 L 24.359375 -8.140625 L 24.3125 -7.65625 C 24.3125 -7.1875 24.253906 -6.75 24.140625 -6.34375 C 23.859375 -5.1875 23.316406 -4.15625 22.515625 -3.25 C 21.609375 -2.164062 20.34375 -1.351562 18.71875 -0.8125 C 17.09375 -0.269531 15.160156 0 12.921875 0 Z M 12.921875 0 "/></g></g></g><g fill="#036977" fill-opacity="1"><g transform="translate(226.853645, 66.845718)"><g><path d="M 20.890625 0 L 11.828125 -10.859375 L 9.21875 -8.296875 L 9.21875 0 L 1.625 0 L 1.625 -37.71875 L 9.21875 -37.71875 L 9.21875 -19.046875 L 18.125 -27.953125 L 28.875 -27.890625 L 17.140625 -16.21875 L 30.984375 0 Z M 20.890625 0 "/></g></g></g><g clip-path="url(#f806350a79)"><g clip-path="url(#15bd30f183)"><g clip-path="url(#29f5bc8d37)"><g clip-path="url(#2628ed1ae6)"><path fill="#f69d41" d="M 205.191406 37.972656 C 206.167969 37.515625 206.929688 36.664062 207.070312 35.644531 C 207.214844 34.628906 206.886719 33.617188 206.433594 32.703125 C 207.785156 32.476562 209.007812 31.570312 209.585938 30.375 C 210.160156 29.179688 210.136719 27.6875 209.351562 26.648438 C 208.148438 25.042969 205.875 25.554688 205.371094 25.910156 C 205.253906 25.375 205.132812 24.828125 204.84375 24.363281 C 204.199219 23.335938 202.726562 22.90625 201.527344 23.351562 C 200.332031 23.792969 199.511719 25.027344 199.550781 26.234375 C 198.808594 25.9375 197.933594 25.90625 197.167969 26.203125 C 196.40625 26.5 195.773438 27.136719 195.570312 27.898438 C 195.476562 28.25 195.472656 28.617188 195.507812 28.976562 C 195.558594 29.515625 195.707031 30.058594 196.035156 30.496094 C 196.359375 30.929688 196.882812 31.253906 197.453125 31.265625 C 196.480469 31.765625 195.972656 32.878906 195.972656 33.917969 C 195.976562 34.691406 196.246094 35.484375 196.84375 35.992188 C 197.394531 36.457031 198.179688 36.632812 198.925781 36.535156 C 199.667969 36.433594 200.367188 36.082031 200.941406 35.605469 C 200.992188 36.070312 202.121094 39.421875 205.191406 37.972656 Z M 205.191406 37.972656 " fill-opacity="1" fill-rule="nonzero"/></g></g></g></g><g clip-path="url(#f9dafc9811)"><g clip-path="url(#1ae06e2e79)"><g clip-path="url(#526a7884b1)"><g clip-path="url(#9b0ec51d6c)"><path fill="#faf4df" d="M 200.523438 29.902344 C 200.3125 30.371094 200.371094 30.953125 200.601562 31.402344 C 200.828125 31.847656 201.277344 32.183594 201.789062 32.292969 C 202.523438 32.449219 203.347656 32.113281 203.804688 31.519531 C 204.261719 30.925781 204.351562 30.113281 204.082031 29.445312 C 203.996094 29.222656 203.867188 29.011719 203.691406 28.851562 C 203.308594 28.496094 202.707031 28.402344 202.183594 28.539062 C 201.65625 28.679688 200.957031 28.941406 200.523438 29.902344 Z M 200.523438 29.902344 " fill-opacity="1" fill-rule="nonzero"/></g></g></g></g></svg>