<svg xmlns="http://www.w3.org/2000/svg" xmlns:xlink="http://www.w3.org/1999/xlink" width="350" zoomAndPan="magnify" viewBox="0 0 262.5 101.249998" height="135" preserveAspectRatio="xMidYMid meet" version="1.0"><defs><g/><clipPath id="e3e550e860"><path d="M 12.441406 58.613281 L 249.933594 58.613281 L 249.933594 63 L 12.441406 63 Z M 12.441406 58.613281 " clip-rule="nonzero"/></clipPath><clipPath id="25027ed4c5"><path d="M 12.441406 66 L 249.933594 66 L 249.933594 71 L 12.441406 71 Z M 12.441406 66 " clip-rule="nonzero"/></clipPath><clipPath id="055d011a94"><path d="M 12.441406 74 L 249.933594 74 L 249.933594 79 L 12.441406 79 Z M 12.441406 74 " clip-rule="nonzero"/></clipPath><clipPath id="9ba3d80145"><path d="M 12.441406 82 L 249.933594 82 L 249.933594 87 L 12.441406 87 Z M 12.441406 82 " clip-rule="nonzero"/></clipPath><clipPath id="bd134c1502"><path d="M 12.441406 90 L 249.933594 90 L 249.933594 94.351562 L 12.441406 94.351562 Z M 12.441406 90 " clip-rule="nonzero"/></clipPath><clipPath id="f5684a4e80"><path d="M 190 14 L 204 14 L 204 29 L 190 29 Z M 190 14 " clip-rule="nonzero"/></clipPath><clipPath id="27edbafcd0"><path d="M 188.800781 16.59375 L 202.640625 12.316406 L 206.917969 26.152344 L 193.082031 30.433594 Z M 188.800781 16.59375 " clip-rule="nonzero"/></clipPath><clipPath id="abf3856171"><path d="M 188.800781 16.59375 L 202.640625 12.316406 L 206.917969 26.152344 L 193.082031 30.433594 Z M 188.800781 16.59375 " clip-rule="nonzero"/></clipPath><clipPath id="1622ab6f3f"><path d="M 195 19 L 199 19 L 199 23 L 195 23 Z M 195 19 " clip-rule="nonzero"/></clipPath><clipPath id="8dd8daf04a"><path d="M 188.800781 16.59375 L 202.640625 12.316406 L 206.917969 26.152344 L 193.082031 30.433594 Z M 188.800781 16.59375 " clip-rule="nonzero"/></clipPath><clipPath id="04919a0edf"><path d="M 188.800781 16.59375 L 202.640625 12.316406 L 206.917969 26.152344 L 193.082031 30.433594 Z M 188.800781 16.59375 " clip-rule="nonzero"/></clipPath></defs><g clip-path="url(#e3e550e860)"><path fill="#fdbd4f" d="M 12.441406 58.65625 L 249.5625 58.65625 L 249.5625 62.757812 L 12.441406 62.757812 Z M 12.441406 58.65625 " fill-opacity="1" fill-rule="nonzero"/></g><g clip-path="url(#25027ed4c5)"><path fill="#73cdd7" d="M 12.441406 66.691406 L 249.5625 66.691406 L 249.5625 70.796875 L 12.441406 70.796875 Z M 12.441406 66.691406 " fill-opacity="1" fill-rule="nonzero"/></g><g clip-path="url(#055d011a94)"><path fill="#0fa9b5" d="M 12.441406 74.539062 L 249.5625 74.539062 L 249.5625 78.640625 L 12.441406 78.640625 Z M 12.441406 74.539062 " fill-opacity="1" fill-rule="nonzero"/></g><g clip-path="url(#9ba3d80145)"><path fill="#ea712b" d="M 12.441406 82.367188 L 249.5625 82.367188 L 249.5625 86.472656 L 12.441406 86.472656 Z M 12.441406 82.367188 " fill-opacity="1" fill-rule="nonzero"/></g><g clip-path="url(#bd134c1502)"><path fill="#13477b" d="M 12.441406 90.335938 L 249.5625 90.335938 L 249.5625 94.4375 L 12.441406 94.4375 Z M 12.441406 90.335938 " fill-opacity="1" fill-rule="nonzero"/></g><g fill="#13477b" fill-opacity="1"><g transform="translate(11.694234, 54.674157)"><g><path d="M 9.375 -12.84375 L 9.375 -7.0625 L 24.390625 -7.0625 L 24.390625 0 L 1.515625 0 L 1.515625 -32.75 L 24.390625 -32.75 L 24.390625 -25.703125 L 9.375 -25.703125 L 9.375 -19.90625 L 22.125 -19.90625 L 22.125 -12.84375 Z M 9.375 -12.84375 "/></g></g></g><g fill="#13477b" fill-opacity="1"><g transform="translate(34.723842, 54.674157)"><g><path d="M 14.40625 -25.84375 C 18.101562 -26.144531 21.160156 -25.191406 23.578125 -22.984375 C 26.171875 -20.597656 27.46875 -17.253906 27.46875 -12.953125 L 27.46875 0 L 20.90625 0 L 20.90625 -12.796875 L 20.859375 -12.796875 L 20.859375 -12.90625 C 20.859375 -14.6875 20.238281 -16.195312 19 -17.4375 C 17.757812 -18.675781 16.25 -19.296875 14.46875 -19.296875 C 12.644531 -19.234375 11.128906 -18.597656 9.921875 -17.390625 C 8.648438 -16.109375 8.046875 -14.59375 8.109375 -12.84375 L 8.109375 -12.796875 L 8.0625 -12.796875 L 8.0625 0 L 1.015625 0 L 1.015625 -26.046875 L 8.0625 -26.046875 L 8.0625 -22.671875 C 9.644531 -24.554688 11.757812 -25.613281 14.40625 -25.84375 Z M 14.40625 -25.84375 "/></g></g></g><g fill="#13477b" fill-opacity="1"><g transform="translate(60.323491, 54.674157)"><g><path d="M 20.859375 -26 L 27.46875 -26 L 27.46875 -0.046875 C 27.46875 3.515625 26.207031 6.554688 23.6875 9.078125 C 21.195312 11.585938 18.171875 12.863281 14.609375 12.90625 C 11.285156 12.9375 8.378906 11.84375 5.890625 9.625 C 3.441406 7.476562 2.03125 4.773438 1.65625 1.515625 L 8.3125 1.515625 C 8.550781 2.585938 9.125 3.578125 10.03125 4.484375 C 11.269531 5.722656 12.78125 6.34375 14.5625 6.34375 C 16.34375 6.34375 17.835938 5.707031 19.046875 4.4375 C 20.285156 3.1875 20.90625 1.691406 20.90625 -0.046875 L 20.859375 -2.625 C 19.148438 -0.90625 17.066406 -0.046875 14.609375 -0.046875 C 11.015625 -0.015625 7.941406 -1.257812 5.390625 -3.78125 C 2.835938 -6.300781 1.5625 -9.359375 1.5625 -12.953125 C 1.53125 -16.546875 2.773438 -19.601562 5.296875 -22.125 C 7.816406 -24.675781 10.875 -25.96875 14.46875 -26 C 17.320312 -26 19.453125 -25.109375 20.859375 -23.328125 Z M 20.859375 -13.75 C 20.722656 -15.226562 20.101562 -16.507812 19 -17.59375 C 17.71875 -18.800781 16.207031 -19.40625 14.46875 -19.40625 C 12.71875 -19.40625 11.222656 -18.78125 9.984375 -17.53125 C 8.734375 -16.226562 8.109375 -14.71875 8.109375 -13 C 8.109375 -11.25 8.75 -9.738281 10.03125 -8.46875 C 11.269531 -7.21875 12.78125 -6.59375 14.5625 -6.59375 C 16.375 -6.664062 17.867188 -7.304688 19.046875 -8.515625 C 20.085938 -9.554688 20.691406 -10.800781 20.859375 -12.25 Z M 20.859375 -13.75 "/></g></g></g><g fill="#13477b" fill-opacity="1"><g transform="translate(86.427078, 54.674157)"><g><path d="M 20.15625 -26.046875 L 27.21875 -26.046875 L 27.21875 0 L 20.15625 0 L 20.15625 -2.921875 C 18.707031 -1.035156 16.523438 -0.09375 13.609375 -0.09375 C 10.046875 -0.0625 6.988281 -1.304688 4.4375 -3.828125 C 1.882812 -6.347656 0.585938 -9.40625 0.546875 -13 C 0.515625 -16.5625 1.757812 -19.617188 4.28125 -22.171875 C 6.800781 -24.722656 9.859375 -26.015625 13.453125 -26.046875 C 16.410156 -26.046875 18.644531 -25.09375 20.15625 -23.1875 Z M 18.046875 -8.5625 C 19.285156 -9.8125 19.90625 -11.328125 19.90625 -13.109375 C 19.90625 -14.921875 19.265625 -16.429688 17.984375 -17.640625 C 16.710938 -18.910156 15.21875 -19.515625 13.5 -19.453125 C 11.71875 -19.453125 10.207031 -18.832031 8.96875 -17.59375 C 7.726562 -16.34375 7.109375 -14.828125 7.109375 -13.046875 C 7.109375 -11.304688 7.742188 -9.796875 9.015625 -8.515625 C 10.265625 -7.273438 11.78125 -6.65625 13.5625 -6.65625 C 15.375 -6.71875 16.867188 -7.351562 18.046875 -8.5625 Z M 18.046875 -8.5625 "/></g></g></g><g fill="#13477b" fill-opacity="1"><g transform="translate(112.278698, 54.674157)"><g><path d="M 20.859375 -26 L 27.46875 -26 L 27.46875 -0.046875 C 27.46875 3.515625 26.207031 6.554688 23.6875 9.078125 C 21.195312 11.585938 18.171875 12.863281 14.609375 12.90625 C 11.285156 12.9375 8.378906 11.84375 5.890625 9.625 C 3.441406 7.476562 2.03125 4.773438 1.65625 1.515625 L 8.3125 1.515625 C 8.550781 2.585938 9.125 3.578125 10.03125 4.484375 C 11.269531 5.722656 12.78125 6.34375 14.5625 6.34375 C 16.34375 6.34375 17.835938 5.707031 19.046875 4.4375 C 20.285156 3.1875 20.90625 1.691406 20.90625 -0.046875 L 20.859375 -2.625 C 19.148438 -0.90625 17.066406 -0.046875 14.609375 -0.046875 C 11.015625 -0.015625 7.941406 -1.257812 5.390625 -3.78125 C 2.835938 -6.300781 1.5625 -9.359375 1.5625 -12.953125 C 1.53125 -16.546875 2.773438 -19.601562 5.296875 -22.125 C 7.816406 -24.675781 10.875 -25.96875 14.46875 -26 C 17.320312 -26 19.453125 -25.109375 20.859375 -23.328125 Z M 20.859375 -13.75 C 20.722656 -15.226562 20.101562 -16.507812 19 -17.59375 C 17.71875 -18.800781 16.207031 -19.40625 14.46875 -19.40625 C 12.71875 -19.40625 11.222656 -18.78125 9.984375 -17.53125 C 8.734375 -16.226562 8.109375 -14.71875 8.109375 -13 C 8.109375 -11.25 8.75 -9.738281 10.03125 -8.46875 C 11.269531 -7.21875 12.78125 -6.59375 14.5625 -6.59375 C 16.375 -6.664062 17.867188 -7.304688 19.046875 -8.515625 C 20.085938 -9.554688 20.691406 -10.800781 20.859375 -12.25 Z M 20.859375 -13.75 "/></g></g></g><g fill="#13477b" fill-opacity="1"><g transform="translate(138.382279, 54.674157)"><g><path d="M 26.5 -11.84375 C 26.539062 -11.132812 26.539062 -10.710938 26.5 -10.578125 L 7.5625 -10.625 C 7.832031 -9.851562 8.316406 -9.117188 9.015625 -8.421875 C 10.328125 -7.171875 11.84375 -6.546875 13.5625 -6.546875 C 15.375 -6.617188 16.882812 -7.257812 18.09375 -8.46875 L 18.296875 -8.671875 L 24.84375 -6.59375 C 23.394531 -4.34375 21.882812 -2.734375 20.3125 -1.765625 C 18.53125 -0.617188 16.296875 -0.03125 13.609375 0 C 10.046875 0.03125 6.988281 -1.210938 4.4375 -3.734375 C 1.882812 -6.253906 0.585938 -9.3125 0.546875 -12.90625 C 0.515625 -16.457031 1.757812 -19.515625 4.28125 -22.078125 C 6.800781 -24.628906 9.859375 -25.921875 13.453125 -25.953125 C 17.015625 -25.984375 20.070312 -24.738281 22.625 -22.21875 C 25.175781 -19.695312 26.46875 -16.640625 26.5 -13.046875 Z M 13.5 -19.34375 C 11.71875 -19.34375 10.207031 -18.722656 8.96875 -17.484375 C 8.332031 -16.773438 7.878906 -16.070312 7.609375 -15.375 L 19.453125 -15.375 C 19.179688 -16.070312 18.710938 -16.789062 18.046875 -17.53125 C 16.765625 -18.738281 15.25 -19.34375 13.5 -19.34375 Z M 13.5 -19.34375 "/></g></g></g><g fill="#13477b" fill-opacity="1"><g transform="translate(162.570925, 54.674157)"><g><path d="M 13.953125 -32.546875 C 18.453125 -32.546875 22.316406 -30.953125 25.546875 -27.765625 C 28.734375 -24.578125 30.328125 -20.710938 30.328125 -16.171875 C 30.328125 -11.671875 28.734375 -7.804688 25.546875 -4.578125 C 22.316406 -1.390625 18.453125 0.203125 13.953125 0.203125 L 1.515625 0.203125 L 1.515625 -32.546875 Z M 20.203125 -9.921875 C 21.921875 -11.640625 22.78125 -13.722656 22.78125 -16.171875 C 22.78125 -18.585938 21.921875 -20.6875 20.203125 -22.46875 C 18.492188 -24.1875 16.394531 -25.046875 13.90625 -25.046875 L 9.375 -25.046875 L 9.375 -7.359375 L 13.953125 -7.359375 C 16.410156 -7.359375 18.492188 -8.210938 20.203125 -9.921875 Z M 20.203125 -9.921875 "/></g></g></g><g fill="#13477b" fill-opacity="1"><g transform="translate(191.54692, 54.674157)"><g><path d="M 8.515625 -35.125 L 8.515625 -29.171875 L 1.515625 -29.171875 L 1.515625 -35.125 Z M 8.5625 -25.90625 L 8.5625 0 L 1.515625 0 L 1.515625 -25.90625 Z M 8.5625 -25.90625 "/></g></g></g><g fill="#13477b" fill-opacity="1"><g transform="translate(198.753113, 54.674157)"><g><path d="M 12 0 C 10.25 0 8.71875 -0.269531 7.40625 -0.8125 C 6.363281 -1.175781 5.289062 -1.863281 4.1875 -2.875 C 2.269531 -4.65625 1.394531 -6.90625 1.5625 -9.625 L 1.5625 -10.171875 L 7.203125 -10.078125 L 7.65625 -10.078125 L 7.65625 -9.671875 C 7.6875 -8.835938 7.875 -8.148438 8.21875 -7.609375 C 8.789062 -6.628906 10.050781 -6.140625 12 -6.140625 C 13.601562 -6.140625 14.757812 -6.328125 15.46875 -6.703125 C 15.84375 -6.867188 16.09375 -7.085938 16.21875 -7.359375 C 16.289062 -7.460938 16.328125 -7.5625 16.328125 -7.65625 L 16.375 -7.90625 C 16.375 -8.613281 15.820312 -9.1875 14.71875 -9.625 C 14.28125 -9.789062 13.773438 -9.925781 13.203125 -10.03125 C 12.765625 -10.125 12.273438 -10.207031 11.734375 -10.28125 C 9.722656 -10.476562 8.046875 -10.878906 6.703125 -11.484375 C 5.359375 -12.023438 4.25 -12.765625 3.375 -13.703125 C 2.164062 -15.078125 1.5625 -16.65625 1.5625 -18.4375 C 1.5625 -19.550781 1.765625 -20.578125 2.171875 -21.515625 C 2.472656 -22.253906 2.875 -22.910156 3.375 -23.484375 C 5.1875 -25.566406 8.09375 -26.609375 12.09375 -26.609375 C 14.476562 -26.609375 16.492188 -26.140625 18.140625 -25.203125 C 19.421875 -24.492188 20.445312 -23.535156 21.21875 -22.328125 C 21.820312 -21.421875 22.238281 -20.363281 22.46875 -19.15625 C 22.539062 -18.75 22.59375 -18.359375 22.625 -17.984375 L 22.625 -16.9375 L 16.53125 -16.9375 L 16.53125 -17.6875 C 16.5 -17.820312 16.484375 -17.957031 16.484375 -18.09375 C 16.378906 -18.457031 16.242188 -18.757812 16.078125 -19 C 15.335938 -20.007812 14.007812 -20.515625 12.09375 -20.515625 C 9.269531 -20.515625 7.859375 -19.925781 7.859375 -18.75 C 7.859375 -18.144531 8.195312 -17.65625 8.875 -17.28125 C 9.570312 -16.84375 10.765625 -16.523438 12.453125 -16.328125 C 16.304688 -15.921875 19.109375 -14.691406 20.859375 -12.640625 C 22.035156 -11.265625 22.625 -9.6875 22.625 -7.90625 L 22.625 -7.5625 L 22.578125 -7.109375 C 22.578125 -6.671875 22.523438 -6.265625 22.421875 -5.890625 C 22.148438 -4.816406 21.644531 -3.863281 20.90625 -3.03125 C 20.070312 -2.019531 18.898438 -1.257812 17.390625 -0.75 C 15.878906 -0.25 14.082031 0 12 0 Z M 12 0 "/></g></g></g><g fill="#13477b" fill-opacity="1"><g transform="translate(220.01896, 54.674157)"><g><path d="M 19.40625 0 L 10.984375 -10.078125 L 8.5625 -7.703125 L 8.5625 0 L 1.515625 0 L 1.515625 -35.015625 L 8.5625 -35.015625 L 8.5625 -17.6875 L 16.828125 -25.953125 L 26.8125 -25.90625 L 15.921875 -15.0625 L 28.765625 0 Z M 19.40625 0 "/></g></g></g><g clip-path="url(#f5684a4e80)"><g clip-path="url(#27edbafcd0)"><g clip-path="url(#abf3856171)"><path fill="#ea712b" d="M 199.734375 28.21875 C 200.605469 27.800781 201.277344 27.007812 201.390625 26.050781 C 201.503906 25.09375 201.195312 24.132812 200.773438 23.265625 C 201.984375 23.070312 203.070312 22.234375 203.570312 21.117188 C 204.074219 19.996094 204.027344 18.589844 203.308594 17.597656 C 202.199219 16.066406 200.164062 16.511719 199.714844 16.839844 C 199.601562 16.332031 199.484375 15.816406 199.214844 15.371094 C 198.625 14.394531 197.289062 13.96875 196.21875 14.367188 C 195.148438 14.769531 194.429688 15.917969 194.484375 17.058594 C 193.8125 16.769531 193.023438 16.722656 192.339844 16.992188 C 191.660156 17.261719 191.101562 17.855469 190.929688 18.566406 C 190.847656 18.898438 190.851562 19.246094 190.886719 19.585938 C 190.945312 20.09375 191.085938 20.609375 191.386719 21.023438 C 191.683594 21.441406 192.160156 21.753906 192.671875 21.773438 C 191.804688 22.230469 191.363281 23.273438 191.382812 24.253906 C 191.398438 24.984375 191.648438 25.738281 192.195312 26.222656 C 192.695312 26.671875 193.40625 26.847656 194.074219 26.765625 C 194.742188 26.683594 195.367188 26.359375 195.875 25.917969 C 195.929688 26.359375 196.992188 29.539062 199.734375 28.21875 Z M 199.734375 28.21875 " fill-opacity="1" fill-rule="nonzero"/></g></g></g><g clip-path="url(#1622ab6f3f)"><g clip-path="url(#8dd8daf04a)"><g clip-path="url(#04919a0edf)"><path fill="#fdbd4f" d="M 195.414062 20.535156 C 195.230469 20.976562 195.292969 21.523438 195.507812 21.949219 C 195.71875 22.375 196.125 22.699219 196.589844 22.808594 C 197.253906 22.964844 197.988281 22.660156 198.390625 22.109375 C 198.792969 21.554688 198.859375 20.792969 198.609375 20.15625 C 198.527344 19.945312 198.410156 19.746094 198.246094 19.589844 C 197.898438 19.25 197.359375 19.152344 196.886719 19.273438 C 196.417969 19.398438 195.789062 19.632812 195.414062 20.535156 Z M 195.414062 20.535156 " fill-opacity="1" fill-rule="nonzero"/></g></g></g></svg>